<svg id="Calque_1" data-name="Calque 1" xmlns="http://www.w3.org/2000/svg" viewBox="0 0 827.38 246.81"><defs><style>.cls-1,.cls-7{fill:#00aeef;}.cls-1{stroke:#00aeef;}.cls-1,.cls-5,.cls-6,.cls-7{stroke-miterlimit:10;stroke-width:2px;}.cls-2,.cls-6{fill:none;}.cls-3{fill:#020202;}.cls-4{fill:#5aba47;}.cls-5{fill:#231f20;}.cls-5,.cls-6,.cls-7{stroke:#231f20;}</style></defs><title>plan</title><rect class="cls-1" x="22.12" y="32.2" width="46.83" height="19.33"/><rect class="cls-1" x="12.17" y="97.66" width="99.01" height="115.96"/><rect class="cls-1" x="68.84" y="373.04" width="122.18" height="60.81" transform="translate(9.45 -199.36) rotate(2.13)"/><rect class="cls-1" x="26.67" y="231.49" width="171.93" height="183.97" transform="translate(-16.31 -190.9) rotate(-1.9)"/><path class="cls-2" d="M797.33,197" transform="translate(-5.66 -194.8)"/><path class="cls-3" d="M460.67,201" transform="translate(-5.66 -194.8)"/><path class="cls-4" d="M63.33,224.33" transform="translate(-5.66 -194.8)"/><path class="cls-5" d="M546.75,361.67" transform="translate(-5.66 -194.8)"/><line class="cls-5" x1="473.01" y1="29.53" x2="473.01" y2="127.7"/><line class="cls-5" x1="542.34" y1="120.2" x2="473.01" y2="120.2"/><line class="cls-5" x1="542.34" y1="144.03" x2="542.34" y2="119.03"/><line class="cls-6" x1="473.01" y1="6.2" x2="473.01" y2="16.95"/><line class="cls-5" x1="473.01" y1="145.53" x2="496.84" y2="145.7"/><line class="cls-5" x1="495.59" y1="145.74" x2="543.43" y2="143.99"/><path class="cls-5" d="M492.73,363.17" transform="translate(-5.66 -194.8)"/><path class="cls-5" d="M548,361.63" transform="translate(-5.66 -194.8)"/><line class="cls-5" x1="474.18" y1="168.73" x2="420.32" y2="170.23"/><line class="cls-5" x1="541.85" y1="5.19" x2="541.34" y2="105.86"/><line class="cls-5" x1="474.18" y1="168.73" x2="474.09" y2="229.2"/><path class="cls-7" d="M141.33,435.67l-84-4.67c-3.7.54-7.36.45-17.33-1a27.47,27.47,0,0,1-15.33-8,29.38,29.38,0,0,1-8-16.33" transform="translate(-5.66 -194.8)"/><path class="cls-7" d="M16.67,405.67l-10-153.33A25.12,25.12,0,0,1,13,235c5.73-6.37,13.47-7.68,16-8" transform="translate(-5.66 -194.8)"/><path class="cls-7" d="M29,227l34.33-2.67c48.75-3,88.21-5.71,116-7.67,24.53-1.73,42.45-3.06,73-5,20.87-1.33,44.48-2.82,75.33-4.33,23.71-1.17,41.45-1.81,73.67-3,25.83-1,47.15-1.66,57.67-2,66.23-2.12,81.25-1.74,161.5-3.83,45.83-1.19,91.76.56,137.5-2.5,12.08-.81,24.25,1.19,36.33.33a40.37,40.37,0,0,1,16.33,2,27.76,27.76,0,0,1,11,6.67,25.93,25.93,0,0,1,4.33,6c3.91,7.31,4.26,15.09,4.67,23.33,1.28,26.18,1.46,25.21,1.33,30-.25,9.16-1,16-1.67,21.67a308.2,308.2,0,0,1-6,34.33c-3.24,14-4.87,21-9,30a114.07,114.07,0,0,1-29.67,39,114.91,114.91,0,0,1-20,13.33,135.5,135.5,0,0,1-22,9.67c-10.95,3.64-20.19,5-28.67,6.33-5.07.77-10.18,1.36-19.28,3-4.57.84-5.86,1.16-9.8,1.9-8.12,1.53-14.64,2.43-22.25,3.4-32.31,4.11-48.47,6.16-67.17,7.5-7.16.51-6.87.38-49.75,1.83-46.67,1.58-48.06,1.77-67.75,2.33-27.83.79-48.63,1.08-67,1.33-38.59.52-65.74.89-102,.33-11.25-.17-9.46-.22-50.33-1-35.39-.67-39.9-.7-51.67-1-15.85-.41-38.66-1.16-66.67-2.67" transform="translate(-5.66 -194.8)"/><path class="cls-6" d="M790.67,256.33a164.23,164.23,0,0,1-1,27.33c-.68,5.63-1.61,10.86-2.67,15.67" transform="translate(-5.66 -194.8)"/><path class="cls-2" d="M758.33,361" transform="translate(-5.66 -194.8)"/><path class="cls-6" d="M781,326.33a59.35,59.35,0,0,1-12.74,23.9c-3.74,4.26-7.46,8.06-11,11.43" transform="translate(-5.66 -194.8)"/><line class="cls-5" x1="765.07" y1="152.41" x2="799.01" y2="173.86"/><line class="cls-5" x1="784.01" y1="88.86" x2="824.67" y2="91.2"/><line class="cls-5" x1="778.18" y1="118.58" x2="818.67" y2="125.53"/><line class="cls-5" x1="740.85" y1="174.69" x2="759.34" y2="205.95"/><line class="cls-5" x1="703.09" y1="185.2" x2="710.59" y2="224.2"/><path class="cls-5" d="M680,384.75c9.19-1.26,18.79-2.83,28.75-4.75,8.79-1.7,17.22-3.55,25.25-5.5" transform="translate(-5.66 -194.8)"/><path class="cls-5" d="M774,241.25h15" transform="translate(-5.66 -194.8)"/><line class="cls-6" x1="783.34" y1="46.45" x2="825.06" y2="40.7"/><line class="cls-6" x1="752.34" y1="1.2" x2="751.56" y2="46.45"/><line class="cls-6" x1="716.84" y1="2.2" x2="714.95" y2="47.45"/><line class="cls-5" x1="737.09" y1="46.45" x2="662.34" y2="48.2"/><line class="cls-5" x1="663.09" y1="3.19" x2="662.17" y2="58.19"/><line class="cls-5" x1="661.34" y1="71.45" x2="659.11" y2="171.2"/><path class="cls-5" d="M664,425.5l.75-41" transform="translate(-5.66 -194.8)"/><line class="cls-5" x1="659.09" y1="189.7" x2="605.59" y2="190.32"/><line class="cls-2" x1="694.09" y1="176.2" x2="694.59" y2="176.2"/><line class="cls-6" x1="591.01" y1="190.01" x2="590.84" y2="239.7"/><line class="cls-2" x1="541.09" y1="166.86" x2="541.09" y2="241.53"/><line class="cls-5" x1="487.07" y1="168.37" x2="541.09" y2="166.86"/><line class="cls-5" x1="541.09" y1="166.86" x2="541.03" y2="240.45"/><line class="cls-5" x1="406.75" y1="170.23" x2="407.18" y2="245.19"/><line class="cls-5" x1="406.75" y1="170.23" x2="368.69" y2="170.23"/><line class="cls-5" x1="356.23" y1="170.23" x2="356.58" y2="232.02"/><line class="cls-5" x1="341.77" y1="170.24" x2="305.42" y2="170.24"/><line class="cls-5" x1="304.36" y1="169.87" x2="306.01" y2="244.53"/><line class="cls-5" x1="305.79" y1="170.24" x2="268.6" y2="170.24"/><line class="cls-5" x1="253.97" y1="169.07" x2="221.73" y2="168.32"/><line class="cls-5" x1="254.6" y1="167.95" x2="256.28" y2="244.53"/><line class="cls-5" x1="209.71" y1="168.04" x2="153.47" y2="165.95"/><line class="cls-5" x1="202.46" y1="167.77" x2="204.9" y2="243.08"/><line class="cls-5" x1="133.59" y1="164.82" x2="136.88" y2="241.54"/><line class="cls-5" x1="141.47" y1="165.21" x2="133.09" y2="164.9"/><line class="cls-5" x1="318.8" y1="32.45" x2="318.8" y2="82.45"/><line class="cls-5" x1="318.17" y1="13.44" x2="318.36" y2="20.7"/><line class="cls-5" x1="320.01" y1="82.45" x2="237.85" y2="82.2"/><line class="cls-5" x1="237.85" y1="74.45" x2="239.02" y2="131.53"/><line class="cls-5" x1="285.84" y1="82.34" x2="287.2" y2="146.2"/><line class="cls-5" x1="319.34" y1="146.7" x2="239.59" y2="144.95"/><line class="cls-5" x1="318.26" y1="117.83" x2="286.52" y2="117.13"/><line class="cls-5" x1="318.8" y1="107.95" x2="318.8" y2="124.31"/><line class="cls-5" x1="319.34" y1="138.63" x2="319.34" y2="146.81"/><line class="cls-5" x1="450.59" y1="84.39" x2="333.34" y2="84.03"/><line class="cls-5" x1="450.59" y1="84.39" x2="450.59" y2="130.45"/><line class="cls-5" x1="451.42" y1="145.61" x2="340.92" y2="146.63"/><line class="cls-5" x1="398.59" y1="84.22" x2="399.6" y2="145.61"/><line class="cls-5" x1="391.85" y1="84.33" x2="392.87" y2="146.15"/><line class="cls-5" x1="340.08" y1="83.03" x2="340.84" y2="131.2"/><line class="cls-5" x1="213.84" y1="18.57" x2="215.84" y2="78.95"/><line class="cls-5" x1="162.39" y1="22.65" x2="164.07" y2="73.45"/><line class="cls-5" x1="164.46" y1="85.09" x2="164.77" y2="94.55"/><line class="cls-5" x1="101.52" y1="25.89" x2="103.84" y2="95.97"/><line class="cls-5" x1="83.09" y1="168.7" x2="7.97" y2="168.43"/><line class="cls-5" x1="81.84" y1="133.2" x2="6.47" y2="134.08"/><line class="cls-5" x1="79.84" y1="83.75" x2="2.23" y2="84.66"/><line class="cls-5" x1="82.61" y1="152.7" x2="85.44" y2="218.21"/><line class="cls-5" x1="86.85" y1="229.95" x2="87.32" y2="238.1"/><line class="cls-5" x1="80.41" y1="101.56" x2="82.06" y2="139.92"/><line class="cls-5" x1="79.39" y1="77.93" x2="79.9" y2="89.66"/><line class="cls-5" x1="77.3" y1="29.53" x2="78.83" y2="64.95"/><line class="cls-5" x1="216.01" y1="94.71" x2="129.68" y2="94.57"/><line class="cls-5" x1="216.31" y1="93.22" x2="217.71" y2="135.48"/><line class="cls-5" x1="218.5" y1="135.6" x2="154.09" y2="135.4"/><line class="cls-5" x1="129.65" y1="93.53" x2="131.09" y2="140.95"/><line class="cls-5" x1="129.84" y1="111.5" x2="106.09" y2="111.46"/><line class="cls-5" x1="106.09" y1="111.46" x2="107.59" y2="135.5"/></svg>